<svg xmlns="http://www.w3.org/2000/svg" viewBox="0 0 1332 777" width="1332" height="777" style="max-width: 100%; max-height: 100%;"><rect x="0" y="0" width="1332" height="777" fill="#FFFFFF"/><g transform="translate(50, 165)"><g transform="translate(616, -672)"><g transform="translate(-616, 832)"><g transform="translate(22, 22)"><path d="M44 8 L90 8 L136 8 C158 8 172 22 172 44 L172 58 L172 72 C172 94 158 108 136 108 L90 108 L44 108 C22 108 8 94 8 72 L8 58 L8 44 C8 22 22 8 44 8 Z" fill="#FFFFFF" stroke="#0080FF" stroke-width="2"/><g transform="translate(16, 18)"><g transform="translate(0, 18)"><g transform="translate(0, 0)"><g transform="translate(4, 0) scale(0.9)"><text x="13.5" y="18.5" fill="#101723" font-size="14" font-family="Roboto,sans-serif" font-weight="400" xml:space="preserve">Vinyl TrackerHome </text></g><g transform="translate(4, 14.736842105263158) scale(0.9)"><text x="58" y="18.5" fill="#101723" font-size="14" font-family="Roboto,sans-serif" font-weight="400" xml:space="preserve">Page</text></g></g></g></g></g></g><g transform="translate(-224, 864)"><g transform="translate(22, 22)"><path d="M44 8 L90 8 L136 8 C158 8 172 22 172 44 L172 42 L172 40 C172 62 158 76 136 76 L90 76 L44 76 C22 76 8 62 8 40 L8 42 L8 44 C8 22 22 8 44 8 Z" fill="#FFFFFF" stroke="#0080FF" stroke-width="2"/><g transform="translate(16, 12)"><g transform="translate(0, 19)"><g transform="translate(0, 0)"><g transform="translate(4, 0) scale(0.9)"><text x="4" y="18.5" fill="#101723" font-size="14" font-family="Roboto,sans-serif" font-weight="400" xml:space="preserve">Show All Vinyl Listings</text></g></g></g></g></g></g><g transform="translate(-224, 672)"><g transform="translate(22, 22)"><path d="M44 8 L90 8 L136 8 C158 8 172 22 172 44 L172 42 L172 40 C172 62 158 76 136 76 L90 76 L44 76 C22 76 8 62 8 40 L8 42 L8 44 C8 22 22 8 44 8 Z" fill="#FFFFFF" stroke="#0080FF" stroke-width="2"/><g transform="translate(16, 12)"><g transform="translate(0, 19)"><g transform="translate(0, 0)"><g transform="translate(4, 0) scale(0.9)"><text x="29" y="18.5" fill="#101723" font-size="14" font-family="Roboto,sans-serif" font-weight="400" xml:space="preserve">Add New Vinyl</text></g></g></g></g></g></g><g transform="translate(-224, 1056)"><g transform="translate(22, 22)"><path d="M44 8 L90 8 L136 8 C158 8 172 22 172 44 L172 42 L172 40 C172 62 158 76 136 76 L90 76 L44 76 C22 76 8 62 8 40 L8 42 L8 44 C8 22 22 8 44 8 Z" fill="#FFFFFF" stroke="#0080FF" stroke-width="2"/><g transform="translate(16, 12)"><g transform="translate(0, 19)"><g transform="translate(0, 0)"><g transform="translate(4, 0) scale(0.9)"><text x="32" y="18.5" fill="#101723" font-size="14" font-family="Roboto,sans-serif" font-weight="400" xml:space="preserve">Contact Page</text></g></g></g></g></g></g><g transform="translate(112, 960)"><g transform="translate(22, 22)"><path d="M44 8 L90 8 L136 8 C158 8 172 22 172 44 L172 42 L172 40 C172 62 158 76 136 76 L90 76 L44 76 C22 76 8 62 8 40 L8 42 L8 44 C8 22 22 8 44 8 Z" fill="#FFFFFF" stroke="#0080FF" stroke-width="2"/><g transform="translate(16, 12)"><g transform="translate(0, 8)"><g transform="translate(0, 0)"><g transform="translate(4, 0) scale(0.9)"><text x="9.5" y="18.5" fill="#101723" font-size="14" font-family="Roboto,sans-serif" font-weight="400" xml:space="preserve">Show Selected Vinyl </text></g><g transform="translate(4, 14.736842105263158) scale(0.9)"><text x="52.5" y="18.5" fill="#101723" font-size="14" font-family="Roboto,sans-serif" font-weight="400" xml:space="preserve">Details</text></g></g></g></g></g></g><g transform="translate(112, 736)"><g transform="translate(22, 22)"><path d="M44 8 L90 8 L136 8 C158 8 172 22 172 44 L172 42 L172 40 C172 62 158 76 136 76 L90 76 L44 76 C22 76 8 62 8 40 L8 42 L8 44 C8 22 22 8 44 8 Z" fill="#FFFFFF" stroke="#0080FF" stroke-width="2"/><g transform="translate(16, 12)"><g transform="translate(0, 8)"><g transform="translate(0, 0)"><g transform="translate(4, 0) scale(0.9)"><text x="0.5" y="18.5" fill="#101723" font-size="14" font-family="Roboto,sans-serif" font-weight="400" xml:space="preserve">Updated Selected Vinyl </text></g><g transform="translate(4, 14.736842105263158) scale(0.9)"><text x="52.5" y="18.5" fill="#101723" font-size="14" font-family="Roboto,sans-serif" font-weight="400" xml:space="preserve">Details</text></g></g></g></g></g></g><g transform="translate(392, 960)"><g transform="translate(22, 22)"><path d="M44 8 L90 8 L136 8 C158 8 172 22 172 44 L172 42 L172 40 C172 62 158 76 136 76 L90 76 L44 76 C22 76 8 62 8 40 L8 42 L8 44 C8 22 22 8 44 8 Z" fill="#FFFFFF" stroke="#0080FF" stroke-width="2"/><g transform="translate(16, 12)"><g><g transform="translate(0, 0)"><g transform="translate(4, 0) scale(0.9)"><text x="9" y="18.5" fill="#101723" font-size="14" font-family="Roboto,sans-serif" font-weight="400" xml:space="preserve">Delete Selected Vinyl</text></g></g></g></g></g></g><g><path stroke="#0080FF" stroke-width="2" fill="none" d="M -422,912 L -402,912 Q -392,912 -392,922 L -392,1110 Q -392,1120 -382,1120 L -224,1120 L -194,1120" stroke-dasharray=""/><path class="common--cursorPointer" stroke="#FFFFFF" stroke-width="14" opacity="0" fill="none" d="M -422,912 L -402,912 Q -392,912 -392,922 L -392,1110 Q -392,1120 -382,1120 L -224,1120 L -194,1120"/><g transform="translate(-10000 -10000)"/><g transform="translate(-422 912)" style="cursor: grab;"><g transform="translate(3 -3) rotate(450)"><circle r="11" cx="3" cy="3" fill="#FFFFFF" stroke="#A2CEF9" stroke-width="2" style="opacity: 0;"/><path d="M3 6C4.65685 6 6 4.65685 6 3C6 1.34315 4.65685 0 3 0C1.34315 0 0 1.34315 0 3C0 4.65685 1.34315 6 3 6Z" fill="#0080FF" style="opacity: 1;"/></g></g><g transform="translate(-194 1120)" style="cursor: grab;"><g transform="translate(-1 -7) rotate(90)"><circle r="11" cx="7" cy="4" fill="#FFFFFF" stroke="#A2CEF9" stroke-width="2" style="opacity: 0;"/><path d="M6.34003 0.275664C6.70452 -0.0918881 7.29548 -0.0918881 7.65997 0.275664L13.7266 6.39331C14.0911 6.76086 14.0911 7.35678 13.7266 7.72434C13.3621 8.09189 12.7712 8.09189 12.4067 7.72434L7 2.2722L1.5933 7.72434C1.22881 8.09189 0.637856 8.09189 0.273367 7.72434C-0.0911224 7.35678 -0.0911224 6.76086 0.273367 6.39331L6.34003 0.275664Z" fill="#0080FF" style="opacity: 1;"/></g></g></g><g><path stroke="#0080FF" stroke-width="2" fill="none" d="M -422,912 L -400,912 Q -392,912 -392,920 L -392,920 Q -392,928 -384,928 L -224,928 L -194,928" stroke-dasharray=""/><path class="common--cursorPointer" stroke="#FFFFFF" stroke-width="14" opacity="0" fill="none" d="M -422,912 L -400,912 Q -392,912 -392,920 L -392,920 Q -392,928 -384,928 L -224,928 L -194,928"/><g transform="translate(-10000 -10000)"/><g transform="translate(-422 912)" style="cursor: grab;"><g transform="translate(3 -3) rotate(450)"><circle r="11" cx="3" cy="3" fill="#FFFFFF" stroke="#A2CEF9" stroke-width="2" style="opacity: 0;"/><path d="M3 6C4.65685 6 6 4.65685 6 3C6 1.34315 4.65685 0 3 0C1.34315 0 0 1.34315 0 3C0 4.65685 1.34315 6 3 6Z" fill="#0080FF" style="opacity: 1;"/></g></g><g transform="translate(-194 928)" style="cursor: grab;"><g transform="translate(-1 -7) rotate(90)"><circle r="11" cx="7" cy="4" fill="#FFFFFF" stroke="#A2CEF9" stroke-width="2" style="opacity: 0;"/><path d="M6.34003 0.275664C6.70452 -0.0918881 7.29548 -0.0918881 7.65997 0.275664L13.7266 6.39331C14.0911 6.76086 14.0911 7.35678 13.7266 7.72434C13.3621 8.09189 12.7712 8.09189 12.4067 7.72434L7 2.2722L1.5933 7.72434C1.22881 8.09189 0.637856 8.09189 0.273367 7.72434C-0.0911224 7.35678 -0.0911224 6.76086 0.273367 6.39331L6.34003 0.275664Z" fill="#0080FF" style="opacity: 1;"/></g></g></g><g><path stroke="#0080FF" stroke-width="2" fill="none" d="M -422,912 L -402,912 Q -392,912 -392,902 L -392,746 Q -392,736 -382,736 L -224,736 L -194,736" stroke-dasharray=""/><path class="common--cursorPointer" stroke="#FFFFFF" stroke-width="14" opacity="0" fill="none" d="M -422,912 L -402,912 Q -392,912 -392,902 L -392,746 Q -392,736 -382,736 L -224,736 L -194,736"/><g transform="translate(-10000 -10000)"/><g transform="translate(-422 912)" style="cursor: grab;"><g transform="translate(3 -3) rotate(450)"><circle r="11" cx="3" cy="3" fill="#FFFFFF" stroke="#A2CEF9" stroke-width="2" style="opacity: 0;"/><path d="M3 6C4.65685 6 6 4.65685 6 3C6 1.34315 4.65685 0 3 0C1.34315 0 0 1.34315 0 3C0 4.65685 1.34315 6 3 6Z" fill="#0080FF" style="opacity: 1;"/></g></g><g transform="translate(-194 736)" style="cursor: grab;"><g transform="translate(-1 -7) rotate(90)"><circle r="11" cx="7" cy="4" fill="#FFFFFF" stroke="#A2CEF9" stroke-width="2" style="opacity: 0;"/><path d="M6.34003 0.275664C6.70452 -0.0918881 7.29548 -0.0918881 7.65997 0.275664L13.7266 6.39331C14.0911 6.76086 14.0911 7.35678 13.7266 7.72434C13.3621 8.09189 12.7712 8.09189 12.4067 7.72434L7 2.2722L1.5933 7.72434C1.22881 8.09189 0.637856 8.09189 0.273367 7.72434C-0.0911224 7.35678 -0.0911224 6.76086 0.273367 6.39331L6.34003 0.275664Z" fill="#0080FF" style="opacity: 1;"/></g></g></g><g><path stroke="#0080FF" stroke-width="2" fill="none" d="M -112,770 L -112,800 L -112,864 L -112,894" stroke-dasharray=""/><path class="common--cursorPointer" stroke="#FFFFFF" stroke-width="14" opacity="0" fill="none" d="M -112,770 L -112,800 L -112,864 L -112,894"/><g transform="translate(-10000 -10000)"/><g transform="translate(-112 770)" style="cursor: grab;"><g transform="translate(3 3) rotate(180)"><circle r="11" cx="3" cy="3" fill="#FFFFFF" stroke="#A2CEF9" stroke-width="2" style="opacity: 0;"/><path d="M3 6C4.65685 6 6 4.65685 6 3C6 1.34315 4.65685 0 3 0C1.34315 0 0 1.34315 0 3C0 4.65685 1.34315 6 3 6Z" fill="#0080FF" style="opacity: 1;"/></g></g><g transform="translate(-112 894)" style="cursor: grab;"><g transform="translate(7 -1) rotate(180)"><circle r="11" cx="7" cy="4" fill="#FFFFFF" stroke="#A2CEF9" stroke-width="2" style="opacity: 0;"/><path d="M6.34003 0.275664C6.70452 -0.0918881 7.29548 -0.0918881 7.65997 0.275664L13.7266 6.39331C14.0911 6.76086 14.0911 7.35678 13.7266 7.72434C13.3621 8.09189 12.7712 8.09189 12.4067 7.72434L7 2.2722L1.5933 7.72434C1.22881 8.09189 0.637856 8.09189 0.273367 7.72434C-0.0911224 7.35678 -0.0911224 6.76086 0.273367 6.39331L6.34003 0.275664Z" fill="#0080FF" style="opacity: 1;"/></g></g></g><g><path stroke="#0080FF" stroke-width="2" fill="none" d="M -112,894 L -112,864 L -112,800 L -112,770" stroke-dasharray=""/><path class="common--cursorPointer" stroke="#FFFFFF" stroke-width="14" opacity="0" fill="none" d="M -112,894 L -112,864 L -112,800 L -112,770"/><g transform="translate(-10000 -10000)"/><g transform="translate(-112 894)" style="cursor: grab;"><g transform="translate(-3 -3) rotate(360)"><circle r="11" cx="3" cy="3" fill="#FFFFFF" stroke="#A2CEF9" stroke-width="2" style="opacity: 0;"/><path d="M3 6C4.65685 6 6 4.65685 6 3C6 1.34315 4.65685 0 3 0C1.34315 0 0 1.34315 0 3C0 4.65685 1.34315 6 3 6Z" fill="#0080FF" style="opacity: 1;"/></g></g><g transform="translate(-112 770)" style="cursor: grab;"><g transform="translate(-7 1) rotate(0)"><circle r="11" cx="7" cy="4" fill="#FFFFFF" stroke="#A2CEF9" stroke-width="2" style="opacity: 0;"/><path d="M6.34003 0.275664C6.70452 -0.0918881 7.29548 -0.0918881 7.65997 0.275664L13.7266 6.39331C14.0911 6.76086 14.0911 7.35678 13.7266 7.72434C13.3621 8.09189 12.7712 8.09189 12.4067 7.72434L7 2.2722L1.5933 7.72434C1.22881 8.09189 0.637856 8.09189 0.273367 7.72434C-0.0911224 7.35678 -0.0911224 6.76086 0.273367 6.39331L6.34003 0.275664Z" fill="#0080FF" style="opacity: 1;"/></g></g></g><g><path stroke="#0080FF" stroke-width="2" fill="none" d="M -112,962 L -112,992 L -112,1056 L -112,1086" stroke-dasharray=""/><path class="common--cursorPointer" stroke="#FFFFFF" stroke-width="14" opacity="0" fill="none" d="M -112,962 L -112,992 L -112,1056 L -112,1086"/><g transform="translate(-10000 -10000)"/><g transform="translate(-112 962)" style="cursor: grab;"><g transform="translate(3 3) rotate(180)"><circle r="11" cx="3" cy="3" fill="#FFFFFF" stroke="#A2CEF9" stroke-width="2" style="opacity: 0;"/><path d="M3 6C4.65685 6 6 4.65685 6 3C6 1.34315 4.65685 0 3 0C1.34315 0 0 1.34315 0 3C0 4.65685 1.34315 6 3 6Z" fill="#0080FF" style="opacity: 1;"/></g></g><g transform="translate(-112 1086)" style="cursor: grab;"><g transform="translate(7 -1) rotate(180)"><circle r="11" cx="7" cy="4" fill="#FFFFFF" stroke="#A2CEF9" stroke-width="2" style="opacity: 0;"/><path d="M6.34003 0.275664C6.70452 -0.0918881 7.29548 -0.0918881 7.65997 0.275664L13.7266 6.39331C14.0911 6.76086 14.0911 7.35678 13.7266 7.72434C13.3621 8.09189 12.7712 8.09189 12.4067 7.72434L7 2.2722L1.5933 7.72434C1.22881 8.09189 0.637856 8.09189 0.273367 7.72434C-0.0911224 7.35678 -0.0911224 6.76086 0.273367 6.39331L6.34003 0.275664Z" fill="#0080FF" style="opacity: 1;"/></g></g></g><g><path stroke="#0080FF" stroke-width="2" fill="none" d="M -112,1086 L -112,1056 L -112,992 L -112,962" stroke-dasharray=""/><path class="common--cursorPointer" stroke="#FFFFFF" stroke-width="14" opacity="0" fill="none" d="M -112,1086 L -112,1056 L -112,992 L -112,962"/><g transform="translate(-10000 -10000)"/><g transform="translate(-112 1086)" style="cursor: grab;"><g transform="translate(-3 -3) rotate(360)"><circle r="11" cx="3" cy="3" fill="#FFFFFF" stroke="#A2CEF9" stroke-width="2" style="opacity: 0;"/><path d="M3 6C4.65685 6 6 4.65685 6 3C6 1.34315 4.65685 0 3 0C1.34315 0 0 1.34315 0 3C0 4.65685 1.34315 6 3 6Z" fill="#0080FF" style="opacity: 1;"/></g></g><g transform="translate(-112 962)" style="cursor: grab;"><g transform="translate(-7 1) rotate(0)"><circle r="11" cx="7" cy="4" fill="#FFFFFF" stroke="#A2CEF9" stroke-width="2" style="opacity: 0;"/><path d="M6.34003 0.275664C6.70452 -0.0918881 7.29548 -0.0918881 7.65997 0.275664L13.7266 6.39331C14.0911 6.76086 14.0911 7.35678 13.7266 7.72434C13.3621 8.09189 12.7712 8.09189 12.4067 7.72434L7 2.2722L1.5933 7.72434C1.22881 8.09189 0.637856 8.09189 0.273367 7.72434C-0.0911224 7.35678 -0.0911224 6.76086 0.273367 6.39331L6.34003 0.275664Z" fill="#0080FF" style="opacity: 1;"/></g></g></g><g><path stroke="#0080FF" stroke-width="2" fill="none" d="M -194,1120 L -214,1120 Q -224,1120 -224,1110 L -224,922 Q -224,912 -234,912 L -392,912 L -422,912" stroke-dasharray=""/><path class="common--cursorPointer" stroke="#FFFFFF" stroke-width="14" opacity="0" fill="none" d="M -194,1120 L -214,1120 Q -224,1120 -224,1110 L -224,922 Q -224,912 -234,912 L -392,912 L -422,912"/><g transform="translate(-10000 -10000)"/><g transform="translate(-194 1120)" style="cursor: grab;"><g transform="translate(-3 3) rotate(270)"><circle r="11" cx="3" cy="3" fill="#FFFFFF" stroke="#A2CEF9" stroke-width="2" style="opacity: 0;"/><path d="M3 6C4.65685 6 6 4.65685 6 3C6 1.34315 4.65685 0 3 0C1.34315 0 0 1.34315 0 3C0 4.65685 1.34315 6 3 6Z" fill="#0080FF" style="opacity: 1;"/></g></g><g transform="translate(-422 912)" style="cursor: grab;"><g transform="translate(1 7) rotate(270)"><circle r="11" cx="7" cy="4" fill="#FFFFFF" stroke="#A2CEF9" stroke-width="2" style="opacity: 0;"/><path d="M6.34003 0.275664C6.70452 -0.0918881 7.29548 -0.0918881 7.65997 0.275664L13.7266 6.39331C14.0911 6.76086 14.0911 7.35678 13.7266 7.72434C13.3621 8.09189 12.7712 8.09189 12.4067 7.72434L7 2.2722L1.5933 7.72434C1.22881 8.09189 0.637856 8.09189 0.273367 7.72434C-0.0911224 7.35678 -0.0911224 6.76086 0.273367 6.39331L6.34003 0.275664Z" fill="#0080FF" style="opacity: 1;"/></g></g></g><g><path stroke="#0080FF" stroke-width="2" fill="none" d="M -194,928 L -216,928 Q -224,928 -224,920 L -224,920 Q -224,912 -232,912 L -392,912 L -422,912" stroke-dasharray=""/><path class="common--cursorPointer" stroke="#FFFFFF" stroke-width="14" opacity="0" fill="none" d="M -194,928 L -216,928 Q -224,928 -224,920 L -224,920 Q -224,912 -232,912 L -392,912 L -422,912"/><g transform="translate(-10000 -10000)"/><g transform="translate(-194 928)" style="cursor: grab;"><g transform="translate(-3 3) rotate(270)"><circle r="11" cx="3" cy="3" fill="#FFFFFF" stroke="#A2CEF9" stroke-width="2" style="opacity: 0;"/><path d="M3 6C4.65685 6 6 4.65685 6 3C6 1.34315 4.65685 0 3 0C1.34315 0 0 1.34315 0 3C0 4.65685 1.34315 6 3 6Z" fill="#0080FF" style="opacity: 1;"/></g></g><g transform="translate(-422 912)" style="cursor: grab;"><g transform="translate(1 7) rotate(270)"><circle r="11" cx="7" cy="4" fill="#FFFFFF" stroke="#A2CEF9" stroke-width="2" style="opacity: 0;"/><path d="M6.34003 0.275664C6.70452 -0.0918881 7.29548 -0.0918881 7.65997 0.275664L13.7266 6.39331C14.0911 6.76086 14.0911 7.35678 13.7266 7.72434C13.3621 8.09189 12.7712 8.09189 12.4067 7.72434L7 2.2722L1.5933 7.72434C1.22881 8.09189 0.637856 8.09189 0.273367 7.72434C-0.0911224 7.35678 -0.0911224 6.76086 0.273367 6.39331L6.34003 0.275664Z" fill="#0080FF" style="opacity: 1;"/></g></g></g><g><path stroke="#0080FF" stroke-width="2" fill="none" d="M -194,736 L -214,736 Q -224,736 -224,746 L -224,902 Q -224,912 -234,912 L -392,912 L -422,912" stroke-dasharray=""/><path class="common--cursorPointer" stroke="#FFFFFF" stroke-width="14" opacity="0" fill="none" d="M -194,736 L -214,736 Q -224,736 -224,746 L -224,902 Q -224,912 -234,912 L -392,912 L -422,912"/><g transform="translate(-10000 -10000)"/><g transform="translate(-194 736)" style="cursor: grab;"><g transform="translate(-3 3) rotate(270)"><circle r="11" cx="3" cy="3" fill="#FFFFFF" stroke="#A2CEF9" stroke-width="2" style="opacity: 0;"/><path d="M3 6C4.65685 6 6 4.65685 6 3C6 1.34315 4.65685 0 3 0C1.34315 0 0 1.34315 0 3C0 4.65685 1.34315 6 3 6Z" fill="#0080FF" style="opacity: 1;"/></g></g><g transform="translate(-422 912)" style="cursor: grab;"><g transform="translate(1 7) rotate(270)"><circle r="11" cx="7" cy="4" fill="#FFFFFF" stroke="#A2CEF9" stroke-width="2" style="opacity: 0;"/><path d="M6.34003 0.275664C6.70452 -0.0918881 7.29548 -0.0918881 7.65997 0.275664L13.7266 6.39331C14.0911 6.76086 14.0911 7.35678 13.7266 7.72434C13.3621 8.09189 12.7712 8.09189 12.4067 7.72434L7 2.2722L1.5933 7.72434C1.22881 8.09189 0.637856 8.09189 0.273367 7.72434C-0.0911224 7.35678 -0.0911224 6.76086 0.273367 6.39331L6.34003 0.275664Z" fill="#0080FF" style="opacity: 1;"/></g></g></g><g><path stroke="#0080FF" stroke-width="2" fill="none" d="M 504,990 L 504,960 L 504,938 Q 504,928 494,928 L 0,928 L -30,928" stroke-dasharray=""/><path class="common--cursorPointer" stroke="#FFFFFF" stroke-width="14" opacity="0" fill="none" d="M 504,990 L 504,960 L 504,938 Q 504,928 494,928 L 0,928 L -30,928"/><g transform="translate(-10000 -10000)"/><g transform="translate(504 990)" style="cursor: grab;"><g transform="translate(-3 -3) rotate(360)"><circle r="11" cx="3" cy="3" fill="#FFFFFF" stroke="#A2CEF9" stroke-width="2" style="opacity: 0;"/><path d="M3 6C4.65685 6 6 4.65685 6 3C6 1.34315 4.65685 0 3 0C1.34315 0 0 1.34315 0 3C0 4.65685 1.34315 6 3 6Z" fill="#0080FF" style="opacity: 1;"/></g></g><g transform="translate(-30 928)" style="cursor: grab;"><g transform="translate(1 7) rotate(270)"><circle r="11" cx="7" cy="4" fill="#FFFFFF" stroke="#A2CEF9" stroke-width="2" style="opacity: 0;"/><path d="M6.34003 0.275664C6.70452 -0.0918881 7.29548 -0.0918881 7.65997 0.275664L13.7266 6.39331C14.0911 6.76086 14.0911 7.35678 13.7266 7.72434C13.3621 8.09189 12.7712 8.09189 12.4067 7.72434L7 2.2722L1.5933 7.72434C1.22881 8.09189 0.637856 8.09189 0.273367 7.72434C-0.0911224 7.35678 -0.0911224 6.76086 0.273367 6.39331L6.34003 0.275664Z" fill="#0080FF" style="opacity: 1;"/></g></g></g><g><path stroke="#0080FF" stroke-width="2" fill="none" d="M -30,928 L -10,928 Q 0,928 0,938 L 0,1014 Q 0,1024 10,1024 L 112,1024 L 142,1024" stroke-dasharray=""/><path class="common--cursorPointer" stroke="#FFFFFF" stroke-width="14" opacity="0" fill="none" d="M -30,928 L -10,928 Q 0,928 0,938 L 0,1014 Q 0,1024 10,1024 L 112,1024 L 142,1024"/><g transform="translate(-10000 -10000)"/><g transform="translate(-30 928)" style="cursor: grab;"><g transform="translate(3 -3) rotate(450)"><circle r="11" cx="3" cy="3" fill="#FFFFFF" stroke="#A2CEF9" stroke-width="2" style="opacity: 0;"/><path d="M3 6C4.65685 6 6 4.65685 6 3C6 1.34315 4.65685 0 3 0C1.34315 0 0 1.34315 0 3C0 4.65685 1.34315 6 3 6Z" fill="#0080FF" style="opacity: 1;"/></g></g><g transform="translate(142 1024)" style="cursor: grab;"><g transform="translate(-1 -7) rotate(90)"><circle r="11" cx="7" cy="4" fill="#FFFFFF" stroke="#A2CEF9" stroke-width="2" style="opacity: 0;"/><path d="M6.34003 0.275664C6.70452 -0.0918881 7.29548 -0.0918881 7.65997 0.275664L13.7266 6.39331C14.0911 6.76086 14.0911 7.35678 13.7266 7.72434C13.3621 8.09189 12.7712 8.09189 12.4067 7.72434L7 2.2722L1.5933 7.72434C1.22881 8.09189 0.637856 8.09189 0.273367 7.72434C-0.0911224 7.35678 -0.0911224 6.76086 0.273367 6.39331L6.34003 0.275664Z" fill="#0080FF" style="opacity: 1;"/></g></g></g><g><path stroke="#0080FF" stroke-width="2" fill="none" d="M -30,928 L -10,928 Q 0,928 0,918 L 0,810 Q 0,800 10,800 L 112,800 L 142,800" stroke-dasharray=""/><path class="common--cursorPointer" stroke="#FFFFFF" stroke-width="14" opacity="0" fill="none" d="M -30,928 L -10,928 Q 0,928 0,918 L 0,810 Q 0,800 10,800 L 112,800 L 142,800"/><g transform="translate(-10000 -10000)"/><g transform="translate(-30 928)" style="cursor: grab;"><g transform="translate(3 -3) rotate(450)"><circle r="11" cx="3" cy="3" fill="#FFFFFF" stroke="#A2CEF9" stroke-width="2" style="opacity: 0;"/><path d="M3 6C4.65685 6 6 4.65685 6 3C6 1.34315 4.65685 0 3 0C1.34315 0 0 1.34315 0 3C0 4.65685 1.34315 6 3 6Z" fill="#0080FF" style="opacity: 1;"/></g></g><g transform="translate(142 800)" style="cursor: grab;"><g transform="translate(-1 -7) rotate(90)"><circle r="11" cx="7" cy="4" fill="#FFFFFF" stroke="#A2CEF9" stroke-width="2" style="opacity: 0;"/><path d="M6.34003 0.275664C6.70452 -0.0918881 7.29548 -0.0918881 7.65997 0.275664L13.7266 6.39331C14.0911 6.76086 14.0911 7.35678 13.7266 7.72434C13.3621 8.09189 12.7712 8.09189 12.4067 7.72434L7 2.2722L1.5933 7.72434C1.22881 8.09189 0.637856 8.09189 0.273367 7.72434C-0.0911224 7.35678 -0.0911224 6.76086 0.273367 6.39331L6.34003 0.275664Z" fill="#0080FF" style="opacity: 1;"/></g></g></g><g><path stroke="#0080FF" stroke-width="2" fill="none" d="M 142,800 L 122,800 Q 112,800 112,810 L 112,918 Q 112,928 102,928 L 0,928 L -30,928" stroke-dasharray=""/><path class="common--cursorPointer" stroke="#FFFFFF" stroke-width="14" opacity="0" fill="none" d="M 142,800 L 122,800 Q 112,800 112,810 L 112,918 Q 112,928 102,928 L 0,928 L -30,928"/><g transform="translate(-10000 -10000)"/><g transform="translate(142 800)" style="cursor: grab;"><g transform="translate(-3 3) rotate(270)"><circle r="11" cx="3" cy="3" fill="#FFFFFF" stroke="#A2CEF9" stroke-width="2" style="opacity: 0;"/><path d="M3 6C4.65685 6 6 4.65685 6 3C6 1.34315 4.65685 0 3 0C1.34315 0 0 1.34315 0 3C0 4.65685 1.34315 6 3 6Z" fill="#0080FF" style="opacity: 1;"/></g></g><g transform="translate(-30 928)" style="cursor: grab;"><g transform="translate(1 7) rotate(270)"><circle r="11" cx="7" cy="4" fill="#FFFFFF" stroke="#A2CEF9" stroke-width="2" style="opacity: 0;"/><path d="M6.34003 0.275664C6.70452 -0.0918881 7.29548 -0.0918881 7.65997 0.275664L13.7266 6.39331C14.0911 6.76086 14.0911 7.35678 13.7266 7.72434C13.3621 8.09189 12.7712 8.09189 12.4067 7.72434L7 2.2722L1.5933 7.72434C1.22881 8.09189 0.637856 8.09189 0.273367 7.72434C-0.0911224 7.35678 -0.0911224 6.76086 0.273367 6.39331L6.34003 0.275664Z" fill="#0080FF" style="opacity: 1;"/></g></g></g></g></g><g transform="translate(0, 50)"><g transform="translate(4, 0) scale(0.9)"><text x="453.5" y="54" fill="#4C6480" font-size="64" font-family="Roboto,sans-serif" font-weight="400" xml:space="preserve">New User Flow</text></g></g><text x="1282" y="707" text-anchor="end" font-size="14px" font-family="Roboto,sans-serif" fill="#4C6480">09 January 2023</text></svg>